<?xml version="1.0" encoding="UTF-8"?>
<svg id="_레이어_1" data-name="레이어 1" xmlns="http://www.w3.org/2000/svg" viewBox="0 0 28 28">
  <defs>
    <style>
      .cls-1 {
        fill: #f5f5f5;
      }

      .cls-2 {
        fill: none;
        stroke: #f5f5f5;
        stroke-linejoin: round;
        stroke-width: 2.1px;
      }
    </style>
  </defs>
  <path class="cls-2" d="M26.35,7.55h0c.25.91.4,2.33.49,3.7.09,1.35.11,2.57.11,3.04h0s0,.19,0,.19h0v.22c0,.48-.02,1.69-.11,3.04-.09,1.37-.24,2.79-.49,3.7-.25.92-1,1.66-1.97,1.92-.86.23-2.75.38-4.77.47h0l-.7.03s0,0,0,0c-1.97.07-3.83.09-4.57.09h-.33s0,0,0,0h-.35c-.79,0-2.82-.02-4.92-.11-2.15-.09-4.2-.24-5.12-.48-.97-.26-1.72-1-1.97-1.91h0c-.25-.91-.4-2.33-.49-3.7-.09-1.34-.11-2.56-.11-3.04v-.42c0-.48.02-1.69.11-3.04.09-1.37.24-2.79.49-3.7.25-.92,1-1.66,1.97-1.91h0c.92-.24,2.98-.4,5.13-.48,2.09-.09,4.13-.1,4.92-.11h.68c.74,0,2.6.02,4.57.1,0,0,0,0,0,0l.7.03s0,0,0,0c2.03.09,3.91.24,4.77.47.97.26,1.72,1,1.97,1.91Z"/>
  <path class="cls-1" d="M11.71,9.99c-.33-.18-.72-.18-1.04,0-.32.19-.52.53-.52.91v7.19c0,.37.2.72.52.91.32.19.72.19,1.04,0l6.4-3.59c.33-.19.54-.54.54-.92s-.2-.73-.54-.92l-6.4-3.59Z"/>
</svg>